<svg width="372" height="55" viewBox="0 0 372 55" fill="none" xmlns="http://www.w3.org/2000/svg">
<path d="M55 27.5C55 27.5 40.15 74.8 6.875 27.5H0C0 42.6878 12.3122 55 27.5 55C42.6878 55 55 42.6878 55 27.5Z" fill="url(#paint0_linear_32_694)"/>
<path d="M27.5 55C27.5 55 -19.8 40.15 27.5 6.875V0C12.3122 0 0 12.3122 0 27.5C0 42.6878 12.3122 55 27.5 55Z" fill="url(#paint1_linear_32_694)"/>
<path d="M0 27.5C0 27.5 14.85 -19.8 48.125 27.5H55C55 12.3122 42.6878 0 27.5 0C12.3122 0 0 12.3122 0 27.5Z" fill="url(#paint2_linear_32_694)"/>
<path d="M27.5 0C27.5 0 74.8 14.85 27.5 48.125V55C42.6878 55 55 42.6878 55 27.5C55 12.3122 42.6878 0 27.5 0Z" fill="url(#paint3_linear_32_694)"/>
<path d="M55 27.5C55 27.5 40.15 74.8 6.875 27.5H0C0 42.6878 12.3122 55 27.5 55C42.6878 55 55 42.6878 55 27.5Z" fill="url(#paint4_linear_32_694)"/>
<path d="M78.4551 41.076C76.4391 41.076 74.5671 40.764 72.8391 40.14C71.1351 39.492 69.6471 38.58 68.3751 37.404C67.1271 36.228 66.1551 34.836 65.4591 33.228C64.7631 31.62 64.4151 29.844 64.4151 27.9C64.4151 25.956 64.7631 24.18 65.4591 22.572C66.1551 20.964 67.1271 19.572 68.3751 18.396C69.6471 17.22 71.1351 16.32 72.8391 15.696C74.5671 15.048 76.4391 14.724 78.4551 14.724C80.9271 14.724 83.1111 15.156 85.0071 16.02C86.9271 16.884 88.5111 18.132 89.7591 19.764L84.3951 24.552C83.6511 23.616 82.8231 22.896 81.9111 22.392C81.0231 21.864 80.0151 21.6 78.8871 21.6C77.9991 21.6 77.1951 21.744 76.4751 22.032C75.7551 22.32 75.1311 22.74 74.6031 23.292C74.0991 23.844 73.7031 24.516 73.4151 25.308C73.1271 26.076 72.9831 26.94 72.9831 27.9C72.9831 28.86 73.1271 29.736 73.4151 30.528C73.7031 31.296 74.0991 31.956 74.6031 32.508C75.1311 33.06 75.7551 33.48 76.4751 33.768C77.1951 34.056 77.9991 34.2 78.8871 34.2C80.0151 34.2 81.0231 33.948 81.9111 33.444C82.8231 32.916 83.6511 32.184 84.3951 31.248L89.7591 36.036C88.5111 37.644 86.9271 38.892 85.0071 39.78C83.1111 40.644 80.9271 41.076 78.4551 41.076ZM99.9882 24.66H111.22V30.78H99.9882V24.66ZM100.564 34.092H113.164V40.5H92.2122V15.3H112.696V21.708H100.564V34.092ZM125.831 41.076C123.719 41.076 121.679 40.836 119.711 40.356C117.743 39.876 116.123 39.252 114.851 38.484L117.587 32.292C118.787 32.988 120.119 33.552 121.583 33.984C123.071 34.392 124.511 34.596 125.903 34.596C126.719 34.596 127.355 34.548 127.811 34.452C128.291 34.332 128.639 34.176 128.855 33.984C129.071 33.768 129.179 33.516 129.179 33.228C129.179 32.772 128.927 32.412 128.423 32.148C127.919 31.884 127.247 31.668 126.407 31.5C125.591 31.308 124.691 31.116 123.707 30.924C122.723 30.708 121.727 30.432 120.719 30.096C119.735 29.76 118.823 29.316 117.983 28.764C117.167 28.212 116.507 27.492 116.003 26.604C115.499 25.692 115.247 24.564 115.247 23.22C115.247 21.66 115.679 20.244 116.543 18.972C117.431 17.676 118.739 16.644 120.467 15.876C122.219 15.108 124.391 14.724 126.983 14.724C128.687 14.724 130.367 14.904 132.023 15.264C133.679 15.624 135.167 16.176 136.487 16.92L133.931 23.076C132.683 22.452 131.471 21.984 130.295 21.672C129.143 21.36 128.015 21.204 126.911 21.204C126.095 21.204 125.447 21.276 124.967 21.42C124.487 21.564 124.139 21.756 123.923 21.996C123.731 22.236 123.635 22.5 123.635 22.788C123.635 23.22 123.887 23.568 124.391 23.832C124.895 24.072 125.555 24.276 126.371 24.444C127.211 24.612 128.123 24.792 129.107 24.984C130.115 25.176 131.111 25.44 132.095 25.776C133.079 26.112 133.979 26.556 134.795 27.108C135.635 27.66 136.307 28.38 136.811 29.268C137.315 30.156 137.567 31.26 137.567 32.58C137.567 34.116 137.123 35.532 136.235 36.828C135.371 38.1 134.075 39.132 132.347 39.924C130.619 40.692 128.447 41.076 125.831 41.076ZM140.095 40.5V15.3H148.591V40.5H140.095Z" fill="#2947A3"/>
<path d="M166.747 40.5V21.888H159.367V15.3H182.623V21.888H175.243V40.5H166.747Z" fill="#9CD336"/>
<path d="M208 27.5C208 27.5 201.25 49 186.125 27.5H183C183 34.4035 188.596 40 195.5 40C202.404 40 208 34.4035 208 27.5Z" fill="url(#paint5_linear_32_694)"/>
<path d="M195.5 40C195.5 40 174 33.25 195.5 18.125V15C188.596 15 183 20.5964 183 27.5C183 34.4035 188.596 40 195.5 40Z" fill="url(#paint6_linear_32_694)"/>
<path d="M183 27.5C183 27.5 189.75 6 204.875 27.5H208C208 20.5964 202.404 15 195.5 15C188.596 15 183 20.5964 183 27.5Z" fill="url(#paint7_linear_32_694)"/>
<path d="M195.5 15C195.5 15 217 21.75 195.5 36.875V40C202.404 40 208 34.4035 208 27.5C208 20.5964 202.404 15 195.5 15Z" fill="url(#paint8_linear_32_694)"/>
<path d="M208 27.5C208 27.5 201.25 49 186.125 27.5H183C183 34.4035 188.596 40 195.5 40C202.404 40 208 34.4035 208 27.5Z" fill="url(#paint9_linear_32_694)"/>
<path d="M210.085 40.5V15.3H217.069L229.885 30.636H226.645V15.3H234.925V40.5H227.941L215.125 25.164H218.365V40.5H210.085Z" fill="#9CD336"/>
<path d="M256.878 41.076C254.766 41.076 252.726 40.836 250.758 40.356C248.79 39.876 247.17 39.252 245.898 38.484L248.634 32.292C249.834 32.988 251.166 33.552 252.63 33.984C254.118 34.392 255.558 34.596 256.95 34.596C257.766 34.596 258.402 34.548 258.858 34.452C259.338 34.332 259.686 34.176 259.902 33.984C260.118 33.768 260.226 33.516 260.226 33.228C260.226 32.772 259.974 32.412 259.47 32.148C258.966 31.884 258.294 31.668 257.454 31.5C256.638 31.308 255.738 31.116 254.754 30.924C253.77 30.708 252.774 30.432 251.766 30.096C250.782 29.76 249.87 29.316 249.03 28.764C248.214 28.212 247.554 27.492 247.05 26.604C246.546 25.692 246.294 24.564 246.294 23.22C246.294 21.66 246.726 20.244 247.59 18.972C248.478 17.676 249.786 16.644 251.514 15.876C253.266 15.108 255.438 14.724 258.03 14.724C259.734 14.724 261.414 14.904 263.07 15.264C264.726 15.624 266.214 16.176 267.534 16.92L264.978 23.076C263.73 22.452 262.518 21.984 261.342 21.672C260.19 21.36 259.062 21.204 257.958 21.204C257.142 21.204 256.494 21.276 256.014 21.42C255.534 21.564 255.186 21.756 254.97 21.996C254.778 22.236 254.682 22.5 254.682 22.788C254.682 23.22 254.934 23.568 255.438 23.832C255.942 24.072 256.602 24.276 257.418 24.444C258.258 24.612 259.17 24.792 260.154 24.984C261.162 25.176 262.158 25.44 263.142 25.776C264.126 26.112 265.026 26.556 265.842 27.108C266.682 27.66 267.354 28.38 267.858 29.268C268.362 30.156 268.614 31.26 268.614 32.58C268.614 34.116 268.17 35.532 267.282 36.828C266.418 38.1 265.122 39.132 263.394 39.924C261.666 40.692 259.494 41.076 256.878 41.076ZM276.262 40.5V21.888H268.882V15.3H292.138V21.888H284.758V40.5H276.262ZM290.343 40.5L301.359 15.3H309.711L320.727 40.5H311.943L303.807 19.332H307.119L298.983 40.5H290.343ZM296.895 36.108L299.055 29.988H310.647L312.807 36.108H296.895ZM334.8 41.076C332.76 41.076 330.876 40.764 329.148 40.14C327.444 39.492 325.956 38.58 324.684 37.404C323.436 36.228 322.464 34.836 321.768 33.228C321.072 31.62 320.724 29.844 320.724 27.9C320.724 25.956 321.072 24.18 321.768 22.572C322.464 20.964 323.448 19.572 324.72 18.396C325.992 17.22 327.492 16.32 329.22 15.696C330.972 15.048 332.892 14.724 334.98 14.724C337.476 14.724 339.696 15.144 341.64 15.984C343.608 16.824 345.228 18.024 346.5 19.584L341.064 24.372C340.272 23.46 339.408 22.776 338.472 22.32C337.56 21.84 336.54 21.6 335.412 21.6C334.476 21.6 333.624 21.744 332.856 22.032C332.112 22.32 331.476 22.74 330.948 23.292C330.42 23.844 330.012 24.504 329.724 25.272C329.436 26.04 329.292 26.916 329.292 27.9C329.292 28.836 329.436 29.7 329.724 30.492C330.012 31.26 330.42 31.92 330.948 32.472C331.476 33.024 332.1 33.456 332.82 33.768C333.564 34.056 334.392 34.2 335.304 34.2C336.264 34.2 337.2 34.044 338.112 33.732C339.024 33.396 339.996 32.832 341.028 32.04L345.78 37.872C344.244 38.904 342.492 39.696 340.524 40.248C338.556 40.8 336.648 41.076 334.8 41.076ZM338.4 36.792V27.216H345.78V37.872L338.4 36.792ZM357.176 24.66H368.408V30.78H357.176V24.66ZM357.752 34.092H370.352V40.5H349.4V15.3H369.884V21.708H357.752V34.092Z" fill="#2947A3"/>
<defs>
<linearGradient id="paint0_linear_32_694" x1="0" y1="27.5" x2="55" y2="27.5" gradientUnits="userSpaceOnUse">
<stop stop-color="#3C5190"/>
<stop offset="1" stop-color="#C9CBCF"/>
</linearGradient>
<linearGradient id="paint1_linear_32_694" x1="27.5" y1="0" x2="27.5" y2="55" gradientUnits="userSpaceOnUse">
<stop stop-color="#3C5190"/>
<stop offset="1" stop-color="#C9CBCF"/>
</linearGradient>
<linearGradient id="paint2_linear_32_694" x1="55" y1="27.5" x2="0" y2="27.5" gradientUnits="userSpaceOnUse">
<stop stop-color="#3C5190"/>
<stop offset="1" stop-color="#C9CBCF"/>
</linearGradient>
<linearGradient id="paint3_linear_32_694" x1="27.5" y1="55" x2="27.5" y2="0" gradientUnits="userSpaceOnUse">
<stop stop-color="#3C5190"/>
<stop offset="1" stop-color="#C9CBCF"/>
</linearGradient>
<linearGradient id="paint4_linear_32_694" x1="0" y1="41.25" x2="55" y2="41.25" gradientUnits="userSpaceOnUse">
<stop stop-color="#3C5190" stop-opacity="0"/>
<stop offset="0.499948" stop-color="#818DAF"/>
<stop offset="1" stop-color="#C9CBCF"/>
</linearGradient>
<linearGradient id="paint5_linear_32_694" x1="183" y1="27.5" x2="208" y2="27.5" gradientUnits="userSpaceOnUse">
<stop stop-color="#3C5190"/>
<stop offset="1" stop-color="#9CD336"/>
</linearGradient>
<linearGradient id="paint6_linear_32_694" x1="195.5" y1="15" x2="195.5" y2="40" gradientUnits="userSpaceOnUse">
<stop stop-color="#3C5190"/>
<stop offset="1" stop-color="#9CD336"/>
</linearGradient>
<linearGradient id="paint7_linear_32_694" x1="208" y1="27.5" x2="183" y2="27.5" gradientUnits="userSpaceOnUse">
<stop stop-color="#3C5190"/>
<stop offset="1" stop-color="#9CD336"/>
</linearGradient>
<linearGradient id="paint8_linear_32_694" x1="195.5" y1="40" x2="195.5" y2="15" gradientUnits="userSpaceOnUse">
<stop stop-color="#3C5190"/>
<stop offset="1" stop-color="#9CD336"/>
</linearGradient>
<linearGradient id="paint9_linear_32_694" x1="183" y1="33.75" x2="208" y2="33.75" gradientUnits="userSpaceOnUse">
<stop stop-color="#3C5190" stop-opacity="0"/>
<stop offset="0.447917" stop-color="#597975" stop-opacity="0"/>
<stop offset="0.494792" stop-color="#709760"/>
<stop offset="1" stop-color="#9CD336"/>
</linearGradient>
</defs>
</svg>
