<svg width="78" height="78" viewBox="0 0 78 78" fill="none" xmlns="http://www.w3.org/2000/svg">
<path d="M78 39C78 39 56.94 106.08 9.75 39H0C0 60.5391 17.4609 78 39 78C60.5391 78 78 60.5391 78 39Z" fill="url(#paint0_linear_32_696)"/>
<path d="M39 78C39 78 -28.08 56.94 39 9.75V0C17.4609 0 0 17.4609 0 39C0 60.5391 17.4609 78 39 78Z" fill="url(#paint1_linear_32_696)"/>
<path d="M0 39C0 39 21.06 -28.08 68.25 39H78C78 17.4609 60.5391 0 39 0C17.4609 0 0 17.4609 0 39Z" fill="url(#paint2_linear_32_696)"/>
<path d="M39 0C39 0 106.08 21.06 39 68.25V78C60.5391 78 78 60.5391 78 39C78 17.4609 60.5391 0 39 0Z" fill="url(#paint3_linear_32_696)"/>
<path d="M78 39C78 39 56.94 106.08 9.75 39H0C0 60.5391 17.4609 78 39 78C60.5391 78 78 60.5391 78 39Z" fill="url(#paint4_linear_32_696)"/>
<defs>
<linearGradient id="paint0_linear_32_696" x1="0" y1="39" x2="78" y2="39" gradientUnits="userSpaceOnUse">
<stop stop-color="#3C5190"/>
<stop offset="1" stop-color="#C9CBCF"/>
</linearGradient>
<linearGradient id="paint1_linear_32_696" x1="39" y1="0" x2="39" y2="78" gradientUnits="userSpaceOnUse">
<stop stop-color="#3C5190"/>
<stop offset="1" stop-color="#C9CBCF"/>
</linearGradient>
<linearGradient id="paint2_linear_32_696" x1="78" y1="39" x2="0" y2="39" gradientUnits="userSpaceOnUse">
<stop stop-color="#3C5190"/>
<stop offset="1" stop-color="#C9CBCF"/>
</linearGradient>
<linearGradient id="paint3_linear_32_696" x1="39" y1="78" x2="39" y2="0" gradientUnits="userSpaceOnUse">
<stop stop-color="#3C5190"/>
<stop offset="1" stop-color="#C9CBCF"/>
</linearGradient>
<linearGradient id="paint4_linear_32_696" x1="0" y1="58.5" x2="78" y2="58.5" gradientUnits="userSpaceOnUse">
<stop stop-color="#3C5190" stop-opacity="0"/>
<stop offset="0.499948" stop-color="#818DAF"/>
<stop offset="1" stop-color="#C9CBCF"/>
</linearGradient>
</defs>
</svg>
